<svg width="97" height="38" viewBox="0 0 97 38" fill="none" xmlns="http://www.w3.org/2000/svg">
<g clip-path="url(#clip0_1501_3788)">
<path d="M74.9221 30.0189V16.0677H71.5311V30.0189H8.02212V7.98129H10.489V5H5V33H74.9271V30.0189H74.9221Z" fill="white"/>
<path d="M71.6025 12.3773H74.9933V15.2184H71.6025V12.3773Z" fill="white"/>
<path d="M25.1484 12.3773H28.5394V15.2184H25.1484V12.3773Z" fill="white"/>
<path d="M74.9221 30.0189V16.0677H71.5311V30.0189H8.02212V7.98129H10.489V5H5V33H74.9271V30.0189H74.9221Z" fill="white"/>
<path d="M11.9919 5.00024V5.00171H11.9619V25.1491H13.4968V25.1494H23.7068V21.6376H15.8139V7.98154H88.6304V30.0192H76.3986V32.9996H91.6525V5.00024H11.9919Z" fill="white"/>
<path d="M28.4504 16.0679V25.2601H25.1025V16.0679H28.4504Z" fill="white"/>
<path d="M37.4159 18.0525H44.0599C44.0599 18.7353 44.0313 19.3563 43.9739 19.9142C43.9165 20.4721 43.8035 20.9904 43.6324 21.4688C43.3936 22.1406 43.0689 22.7351 42.659 23.2534C42.2491 23.7716 41.7682 24.2039 41.216 24.5516C40.6635 24.8987 40.057 25.1637 39.3972 25.3452C38.7365 25.5276 38.0417 25.6191 37.3133 25.6191C36.3112 25.6191 35.3974 25.4535 34.572 25.1231C33.7465 24.7936 33.0372 24.3295 32.4458 23.7318C31.8536 23.1341 31.3928 22.4161 31.0625 21.5795C30.7321 20.743 30.5674 19.8181 30.5674 18.804C30.5674 17.8027 30.729 16.8824 31.0537 16.0459C31.3784 15.2093 31.8394 14.4946 32.4371 13.9024C33.0347 13.311 33.7551 12.8494 34.5973 12.519C35.4403 12.1887 36.3795 12.0239 37.4159 12.0239C38.7587 12.0239 39.9375 12.3145 40.9509 12.8948C41.9642 13.4759 42.7674 14.3753 43.3595 15.5931L40.1826 16.9088C39.8866 16.2027 39.5021 15.6956 39.0294 15.3885C38.5573 15.0812 38.0193 14.9278 37.4159 14.9278C36.9145 14.9278 36.4592 15.0218 36.0493 15.2095C35.6394 15.3973 35.2892 15.6649 34.9994 16.012C34.7089 16.3599 34.4813 16.7778 34.3157 17.2672C34.151 17.7567 34.0683 18.3035 34.0683 18.907C34.0683 19.4538 34.139 19.96 34.2816 20.4273C34.4242 20.8937 34.6375 21.2982 34.9224 21.6396C35.2065 21.981 35.5601 22.2461 35.9811 22.4341C36.4021 22.6218 36.8926 22.7158 37.4505 22.7158C37.78 22.7158 38.0992 22.6792 38.4063 22.6045C38.7137 22.5312 38.9898 22.411 39.2349 22.2463C39.4792 22.0815 39.6815 21.8674 39.8414 21.6055C40.0005 21.3436 40.109 21.0252 40.1655 20.6496H37.4161V18.0525H37.4159Z" fill="white"/>
<path d="M49.5256 17.3521H54.3587V12.3829H57.7058V25.2602H54.3587V19.9486H49.5256V25.2602H46.1777V12.3829H49.5256V17.3521Z" fill="white"/>
<path d="M65.2896 15.2174V25.2602H61.9417V15.2174H59.1924V12.3829H68.0389V15.2174H65.2896Z" fill="white"/>
<path d="M83.2632 15.2174V25.2602H79.9154V15.2174H77.166V12.3829H86.0125V15.2174H83.2632Z" fill="white"/>
</g>
<defs>
<clipPath id="clip0_1501_3788">
<rect width="86.6526" height="28" fill="white" transform="translate(5 5)"/>
</clipPath>
</defs>
</svg>
